<?xml version="1.0" encoding="iso-8859-1"?>
<!-- Generator: Adobe Illustrator 19.0.0, SVG Export Plug-In . SVG Version: 6.00 Build 0)  -->
<svg version="1.1" id="Capa_1" xmlns="http://www.w3.org/2000/svg" xmlns:xlink="http://www.w3.org/1999/xlink" x="0px" y="0px"
	 viewBox="0 0 512 512" style="enable-background:new 0 0 512 512;" xml:space="preserve">
<path style="fill:#57555C;" d="M497,452c0,24.899-20.099,45-45,45H60c-24.901,0-45-20.101-45-45c0-24.901,20.099-45,45-45h392
	C476.901,407,497,427.099,497,452z"/>
<path style="fill:#3C3A41;" d="M497,452c0,24.899-20.099,45-45,45H256v-90h196C476.901,407,497,427.099,497,452z"/>
<path style="fill:#1DE8F1;" d="M90,226c0,8.399,6.599,15,15,15h121c11.7,0,22.2,4.499,30,11.7c9.3,8.099,15,20.099,15,33.3v30
	c0,8.399-6.599,15-15,15s-15-6.601-15-15v-30c0-8.401-6.599-15-15-15H105c-24.901,0-45-20.101-45-45c0-24.901,20.099-45,45-45h121
	c8.401,0,15-6.601,15-15v-30c0-8.401,6.599-15,15-15s15,6.599,15,15v30c0,13.2-5.7,25.199-15,33.3c-7.8,7.2-18.3,11.7-30,11.7H105
	C96.599,211,90,217.599,90,226z"/>
<g>
	<path style="fill:#20D3D3;" d="M271,136v30c0,13.2-5.7,25.199-15,33.3V121C264.401,121,271,127.599,271,136z"/>
	<path style="fill:#20D3D3;" d="M256,252.7c9.3,8.099,15,20.099,15,33.3v30c0,8.399-6.599,15-15,15V252.7z"/>
</g>
<path style="fill:#FF4A4A;" d="M320.2,80.799l-20.101,60c-1.8,6-7.5,10.201-14.099,10.201h-60c-6.599,0-12.299-4.2-14.099-10.201
	l-20.101-60c-2.699-7.8,1.5-16.5,9.6-18.9h109.2C318.701,64.3,322.899,72.999,320.2,80.799z"/>
<path style="fill:#57555C;" d="M361,20.7V46c0,24.899-20.099,45-45,45H196c-24.901,0-45-20.101-45-45V20.7H361z"/>
<path style="fill:#E61E14;" d="M320.2,80.799l-20.101,60c-1.8,6-7.5,10.201-14.099,10.201h-30V61.899h54.6
	C318.701,64.3,322.899,72.999,320.2,80.799z"/>
<path style="fill:#787780;" d="M512,15c0,8.399-6.599,15-15,15H15C6.599,30,0,23.399,0,15C0,6.599,6.599,0,15,0h482
	C505.401,0,512,6.599,512,15z"/>
<path style="fill:#3C3A41;" d="M361,20.7V46c0,24.899-20.099,45-45,45h-60V20.7H361z"/>
<path style="fill:#57555C;" d="M512,15c0,8.399-6.599,15-15,15H256V0h241C505.401,0,512,6.599,512,15z"/>
<g>
	<path style="fill:#FEA832;" d="M136,422H45c-8.291,0-15-6.709-15-15v-91c0-8.291,6.709-15,15-15h91c8.291,0,15,6.709,15,15v91
		C151,415.291,144.291,422,136,422z"/>
	<path style="fill:#FEA832;" d="M301,301h-90c-8.401,0-15,6.599-15,15v91c0,8.399,6.599,15,15,15h90c8.401,0,15-6.601,15-15v-91
		C316,307.599,309.401,301,301,301z"/>
</g>
<path style="fill:#FE9923;" d="M467,422h-91c-8.291,0-15-6.709-15-15v-91c0-8.291,6.709-15,15-15h91c8.291,0,15,6.709,15,15v91
	C482,415.291,475.291,422,467,422z"/>
<g>
	<path style="fill:#E5E5E5;" d="M60,422c-16.538,0-30,13.462-30,30s13.462,30,30,30s30-13.462,30-30S76.538,422,60,422z"/>
	<path style="fill:#E5E5E5;" d="M256,422c-16.5,0-30,13.5-30,30s13.5,30,30,30s30-13.5,30-30S272.5,422,256,422z"/>
</g>
<path style="fill:#C8C6CD;" d="M452,422c-16.538,0-30,13.462-30,30s13.462,30,30,30s30-13.462,30-30S468.538,422,452,422z"/>
<path style="fill:#787780;" d="M452,392H60c-32.999,0-60,26.999-60,60c0,32.999,27.001,60,60,60h392c32.999,0,60-27.001,60-60
	C512,418.999,484.999,392,452,392z M452,482H60c-16.5,0-30-13.5-30-30s13.5-30,30-30h392c16.5,0,30,13.5,30,30S468.5,482,452,482z"
	/>
<path style="fill:#FE9923;" d="M316,316v91c0,8.399-6.599,15-15,15h-45V301h45C309.401,301,316,307.599,316,316z"/>
<path style="fill:#C8C6CD;" d="M286,452c0,16.5-13.5,30-30,30v-60C272.5,422,286,435.5,286,452z"/>
<path style="fill:#57555C;" d="M512,452c0,32.999-27.001,60-60,60H256v-30h196c16.5,0,30-13.5,30-30s-13.5-30-30-30H256v-30h196
	C484.999,392,512,418.999,512,452z"/>
<g>
</g>
<g>
</g>
<g>
</g>
<g>
</g>
<g>
</g>
<g>
</g>
<g>
</g>
<g>
</g>
<g>
</g>
<g>
</g>
<g>
</g>
<g>
</g>
<g>
</g>
<g>
</g>
<g>
</g>
</svg>
