<?xml version="1.0" encoding="utf-8"?>
<!-- Generator: Adobe Illustrator 15.0.0, SVG Export Plug-In . SVG Version: 6.00 Build 0)  -->
<!DOCTYPE svg PUBLIC "-//W3C//DTD SVG 1.1//EN" "http://www.w3.org/Graphics/SVG/1.1/DTD/svg11.dtd">
<svg version="1.1" id="Layer_1" xmlns="http://www.w3.org/2000/svg" xmlns:xlink="http://www.w3.org/1999/xlink" x="0px" y="0px"
	 width="150px" height="200px" viewBox="0 0 150 200" enable-background="new 0 0 150 200" xml:space="preserve">
<polygon points="76.781,123.611 17.635,100.531 76.443,80.456 130.903,102.069 "/>
<polygon fill="#6FC280" points="132.365,39.436 75.001,18.565 17.636,39.436 17.636,93.103 75.001,113.974 132.365,93.103 "/>
<polygon fill="#56BC79" points="75.001,60.307 17.636,39.436 17.636,93.103 75.001,113.974 132.365,93.103 132.365,39.436 "/>
<polygon fill="#55BB6A" points="75.001,60.307 75.001,113.974 132.365,93.103 132.365,39.436 "/>
<path d="M76.061,128.385"/>
<polygon points="87.85,145.696 67.25,145.696 63.903,143.113 78.195,132.993 91.409,142.917 "/>
<polygon fill="#FFFFFF" points="95.111,151.149 60.255,151.149 78.195,138.446 "/>
<polygon points="75.001,154.584 79.613,154.584 81.001,154.584 81.001,142.555 81.001,136.81 78.14,136.81 75.001,136.81 
	75.001,140.909 "/>
</svg>
