<?xml version="1.0" encoding="utf-8"?>
<!-- Generator: Adobe Illustrator 15.0.0, SVG Export Plug-In . SVG Version: 6.00 Build 0)  -->
<!DOCTYPE svg PUBLIC "-//W3C//DTD SVG 1.1//EN" "http://www.w3.org/Graphics/SVG/1.1/DTD/svg11.dtd">
<svg version="1.1" id="Layer_1" xmlns="http://www.w3.org/2000/svg" xmlns:xlink="http://www.w3.org/1999/xlink" x="0px" y="0px"
	 width="50px" height="50px" viewBox="0 0 50 50" enable-background="new 0 0 50 50" xml:space="preserve">
<path fill="#CEE3F5" d="M25,1.236L1.24,18.516l12.96,6.48l10.8-6.48l10.8,6.48l12.961-6.48L25,1.236z"/>
<path fill="#CEE3F5" d="M14.2,24.996L1.24,31.476L25,48.756l23.761-17.28L35.8,24.996L25,31.476L14.2,24.996z"/>
<path fill="#4374BA" d="M49.827,18.405c-0.012-0.125-0.043-0.249-0.097-0.36c-0.003-0.004-0.003-0.008-0.004-0.012
	c0-0.001-0.003-0.002-0.003-0.003c-0.057-0.113-0.139-0.212-0.233-0.3c-0.018-0.017-0.034-0.035-0.054-0.05
	c-0.015-0.013-0.025-0.026-0.041-0.037l-23.76-17.28c-0.043-0.031-0.093-0.046-0.14-0.071c-0.039-0.021-0.073-0.043-0.116-0.058
	c-0.246-0.095-0.514-0.095-0.76,0c-0.041,0.016-0.076,0.037-0.115,0.058c-0.047,0.025-0.096,0.04-0.14,0.071l-23.76,17.28
	c-0.014,0.011-0.025,0.024-0.039,0.037c-0.021,0.016-0.038,0.035-0.058,0.053c-0.094,0.087-0.176,0.186-0.232,0.298
	c-0.001,0.001-0.002,0.002-0.002,0.003c-0.002,0.004-0.001,0.007-0.003,0.012c-0.054,0.112-0.084,0.235-0.097,0.36
	c-0.002,0.023-0.008,0.045-0.009,0.068c0,0.014-0.004,0.027-0.004,0.042v12.959c0,0.016,0.004,0.028,0.005,0.044
	c0.001,0.023,0.005,0.045,0.009,0.068c0.012,0.125,0.043,0.248,0.097,0.359c0.002,0.004,0.001,0.008,0.003,0.012
	c0.001,0.002,0.002,0.002,0.002,0.004c0.042,0.082,0.096,0.16,0.159,0.23c0.022,0.025,0.049,0.046,0.075,0.068
	c0.031,0.028,0.059,0.063,0.095,0.088l23.76,17.279c0.044,0.031,0.093,0.047,0.14,0.072c0.039,0.02,0.074,0.042,0.116,0.059
	c0.123,0.047,0.25,0.076,0.379,0.076c0.129,0,0.257-0.029,0.38-0.076c0.042-0.017,0.077-0.039,0.117-0.059
	c0.046-0.025,0.096-0.041,0.139-0.072l23.76-17.279c0.036-0.025,0.063-0.06,0.095-0.088c0.026-0.022,0.053-0.043,0.075-0.068
	c0.063-0.07,0.116-0.148,0.158-0.23c0.003-0.002,0.003-0.002,0.003-0.004c0.001-0.004,0.001-0.008,0.004-0.012
	c0.054-0.113,0.085-0.234,0.097-0.359c0.002-0.023,0.007-0.045,0.009-0.068c0-0.016,0.004-0.028,0.004-0.044V18.516
	c0-0.015-0.004-0.028-0.006-0.043C49.833,18.45,49.829,18.428,49.827,18.405z M2.32,20.264l9.465,4.732L2.32,29.729V20.264z
	 M35.848,23.765l-9.768-5.859V3.357l20.608,14.987L35.848,23.765z M25,30.217l-8.701-5.221L25,19.775l8.701,5.221L25,30.217z
	 M23.92,17.905l-9.768,5.859l-10.841-5.42L23.92,3.357V17.905z M14.152,26.228l9.768,5.86v14.548L3.311,31.649L14.152,26.228z
	 M26.08,32.088l9.768-5.86l10.841,5.422L26.08,46.636V32.088z M38.215,24.996l9.465-4.732v9.465L38.215,24.996z"/>
</svg>
