<?xml version="1.0" encoding="utf-8"?>
<!-- Generator: Adobe Illustrator 15.0.0, SVG Export Plug-In . SVG Version: 6.00 Build 0)  -->
<!DOCTYPE svg PUBLIC "-//W3C//DTD SVG 1.1//EN" "http://www.w3.org/Graphics/SVG/1.1/DTD/svg11.dtd">
<svg version="1.1" id="Layer_1" xmlns="http://www.w3.org/2000/svg" xmlns:xlink="http://www.w3.org/1999/xlink" x="0px" y="0px"
	 width="62px" height="62px" viewBox="0 0 62 62" enable-background="new 0 0 62 62" xml:space="preserve">
<polygon fill="#6E92CB" stroke="#000000" stroke-width="0.5" stroke-miterlimit="10" points="50.988,61.039 1,61.039 1,10.961 
	60.984,10.961 60.984,51.023 "/>
<polygon fill="#6E92CB" stroke="#000000" stroke-width="0.5" stroke-miterlimit="10" points="61,50.961 1,50.961 1,10.961 11,0.961 
	61,0.961 "/>
<rect x="11" y="0.961" fill="#70B8E6" stroke="#000000" stroke-width="0.5" stroke-miterlimit="10" width="50" height="50"/>
<polygon fill="#9FC9EB" stroke="#000000" stroke-width="0.5" stroke-miterlimit="10" points="51,60.961 1,60.961 1,10.961 
	51,10.961 51,24.461 "/>
<line fill="none" stroke="#000000" stroke-width="0.5" stroke-miterlimit="10" x1="51" y1="10.961" x2="60.938" y2="0.961"/>
<polygon fill="#CECBE6" stroke="#000000" stroke-width="0.5" stroke-miterlimit="10" points="50.986,10.961 1.167,10.961 
	11.12,0.961 60.875,0.961 "/>
<polygon fill="#71C8F1" stroke="#000000" stroke-width="0.5" stroke-miterlimit="10" points="51.031,11.004 51.031,11.52 
	51.031,60.652 60.906,50.734 60.906,1.149 "/>
</svg>
