<svg version="1.1" viewBox="0.0 0.0 66.66666666666667 40.0" fill="none" stroke="none" stroke-linecap="square" stroke-miterlimit="10" xmlns:xlink="http://www.w3.org/1999/xlink" xmlns="http://www.w3.org/2000/svg"><clipPath id="p.0"><path d="m0 0l66.666664 0l0 40.0l-66.666664 0l0 -40.0z" clip-rule="nonzero"/></clipPath><g clip-path="url(#p.0)"><path fill="#000000" fill-opacity="0.0" d="m0 0l66.666664 0l0 40.0l-66.666664 0z" fill-rule="evenodd"/><path fill="#000000" fill-opacity="0.0" d="m65.20956 37.88422l0 -35.201153l-63.756798 0l0 35.201153z" fill-rule="evenodd"/><path fill="#ffffff" d="m1.4525948 35.34793l31.878399 -10.1488l-31.878399 -10.1488z" fill-rule="evenodd"/><path stroke="#000000" stroke-width="2.0" stroke-linejoin="round" stroke-linecap="butt" d="m1.4525948 35.34793l31.878399 -10.1488l-31.878399 -10.1488z" fill-rule="evenodd"/><path fill="#ffffff" d="m65.2094 35.34793l-31.878403 -10.1488l31.878403 -10.1488z" fill-rule="evenodd"/><path stroke="#000000" stroke-width="2.0" stroke-linejoin="round" stroke-linecap="butt" d="m65.2094 35.34793l-31.878403 -10.1488l31.878403 -10.1488z" fill-rule="evenodd"/><path fill="#000000" fill-opacity="0.0" d="m33.210636 25.199131l1.0040436 -20.2976" fill-rule="evenodd"/><path stroke="#000000" stroke-width="1.0" stroke-linejoin="round" stroke-linecap="butt" d="m33.210636 25.199131l1.0040436 -20.2976" fill-rule="evenodd"/><path fill="#000000" fill-opacity="0.0" d="m49.94352 4.7899876l-31.878399 0" fill-rule="evenodd"/><path stroke="#000000" stroke-width="2.0" stroke-linejoin="round" stroke-linecap="butt" d="m49.94352 4.7899876l-31.878399 0" fill-rule="evenodd"/></g></svg>