<?xml version="1.0" encoding="utf-8"?>
<!-- Generator: Adobe Illustrator 15.0.0, SVG Export Plug-In . SVG Version: 6.00 Build 0)  -->
<!DOCTYPE svg PUBLIC "-//W3C//DTD SVG 1.1//EN" "http://www.w3.org/Graphics/SVG/1.1/DTD/svg11.dtd">
<svg version="1.1" id="Layer_1" xmlns="http://www.w3.org/2000/svg" xmlns:xlink="http://www.w3.org/1999/xlink" x="0px" y="0px"
	 width="116px" height="132px" viewBox="0 0 116 132" enable-background="new 0 0 116 132" xml:space="preserve">
<polygon points="59.781,105.046 0.635,81.966 59.443,61.891 113.903,83.505 "/>
<polygon fill="#6FC280" points="115.365,20.871 58.001,0 0.636,20.871 0.636,74.538 58.001,95.409 115.365,74.538 "/>
<polygon fill="#56BC79" points="58.001,41.742 0.636,20.871 0.636,74.538 58.001,95.409 115.365,74.538 115.365,20.871 "/>
<polygon fill="#55BB6A" points="58.001,41.742 58.001,95.409 115.365,74.538 115.365,20.871 "/>
<path d="M59.061,109.819"/>
<polygon points="69.844,121.107 49.244,121.107 45.897,118.523 60.189,108.404 73.403,118.328 "/>
<polygon fill="#FFFFFF" points="77.105,126.561 42.25,126.561 60.189,113.857 "/>
<polygon points="56.995,129.994 61.607,129.994 62.995,129.994 62.995,117.965 62.995,112.221 60.134,112.221 56.995,112.221 
	56.995,116.32 "/>
</svg>
