<?xml version="1.0" encoding="utf-8"?>
<!-- Generator: Adobe Illustrator 15.0.0, SVG Export Plug-In . SVG Version: 6.00 Build 0)  -->
<!DOCTYPE svg PUBLIC "-//W3C//DTD SVG 1.1//EN" "http://www.w3.org/Graphics/SVG/1.1/DTD/svg11.dtd">
<svg version="1.1" id="Layer_1" xmlns="http://www.w3.org/2000/svg" xmlns:xlink="http://www.w3.org/1999/xlink" x="0px" y="0px"
	 width="116px" height="132px" viewBox="0 0 116 132" enable-background="new 0 0 116 132" xml:space="preserve">
<polygon points="59.781,131.078 0.635,107.998 59.442,87.922 113.902,109.537 "/>
<polygon fill="#6FC280" points="115.365,46.903 58,26.032 0.635,46.903 0.635,100.57 58,121.441 115.365,100.57 "/>
<polygon fill="#56BC79" points="58,67.773 0.635,46.903 0.635,100.57 58,121.441 115.365,100.57 115.365,46.903 "/>
<polygon fill="#55BB6A" points="58,67.773 58,121.441 115.365,100.57 115.365,46.903 "/>
<path d="M59.06,135.852"/>
<g>
	<polygon points="47.132,9.708 67.726,10.24 71.005,12.908 56.456,22.656 43.502,12.395 	"/>
	<polygon fill="#FFFFFF" points="40.014,4.069 74.858,4.97 56.596,17.205 	"/>
	<polygon points="60.206,1.155 55.596,1.036 54.208,1 53.898,13.025 53.75,18.769 56.61,18.843 59.747,18.924 59.853,14.825 	"/>
</g>
</svg>
