<svg id="Layer_1" enable-background="new 0 0 512 512" height="512" viewBox="0 0 512 512" width="512" xmlns="http://www.w3.org/2000/svg"><g><path d="m484.76 414.26-10.26 3.42-30 86.82h30c16.57 0 30-13.43 30-30v-46.01c0-10.24-10.03-17.47-19.74-14.23z" fill="#233952"/><path d="m504.5 256v76.01c0 10.24-10.03 17.47-19.74 14.23l-10.26-3.42-30-146.82z" fill="#233952"/><path d="m474.5 417.68v56.82c0 16.57-13.43 30-30 30h-188.5l-60-368.5h278.5v206.82l-20.51-6.84c-19.43-6.47-39.49 7.99-39.49 28.46v31.62c0 20.47 20.06 34.93 39.49 28.46z" fill="#3d5168"/><path d="m256 7.5h-218.5c-16.569 0-30 13.431-30 30v46.01c0 10.24 10.03 17.47 19.74 14.23l30.77-10.26c19.43-6.47 39.49 7.99 39.49 28.46v31.62c0 20.47-20.06 34.93-39.49 28.46l-30.77-10.26c-9.71-3.24-19.74 3.99-19.74 14.23v76.01l78.44 120h91.62l78.44-120 60-124.25z" fill="#b8d8ff"/><path d="m306.51 335.98-30.77 10.26c-9.71 3.24-19.74-3.99-19.74-14.23v-76.01h-76.01c-10.24 0-17.47 10.03-14.23 19.74l10.26 30.77c6.47 19.43-7.99 39.49-28.46 39.49h-31.62c-20.47 0-34.93-20.06-28.46-39.49l10.26-30.77c3.24-9.71-3.99-19.74-14.23-19.74h-76.01v218.5c0 16.569 13.431 30 30 30h46.01c10.24 0 17.47-10.03 14.23-19.74l-10.26-30.77c-6.47-19.43 7.99-39.49 28.46-39.49h31.62c20.47 0 34.93 20.06 28.46 39.49l-10.26 30.77c-3.24 9.71 3.99 19.74 14.23 19.74h76.01v-76.01c0-10.24 10.03-17.47 19.74-14.23l30.77 10.26c19.43 6.47 39.49-7.99 39.49-28.46v-31.62c0-20.47-20.06-34.93-39.49-28.46z" fill="#1e8aff"/><path d="m504.5 256v-218.5c0-16.569-13.431-30-30-30h-30v218.5l30 30z" fill="#54a5ff"/><path d="m474.5 256v-218.5c0-16.569-13.431-30-30-30h-16.01c-10.24 0-17.47 10.03-14.23 19.74l10.26 30.77c6.47 19.43-7.99 39.49-28.46 39.49h-31.62c-20.47 0-34.93-20.06-28.46-39.49l10.26-30.77c3.24-9.71-3.99-19.74-14.23-19.74h-76.01v76.01c0 10.24-10.03 17.47-19.74 14.23l-30.77-10.26c-19.43-6.47-39.49 7.99-39.49 28.46v31.62c0 20.47 20.06 34.93 39.49 28.46l30.77-10.26c9.71-3.24 19.74 3.99 19.74 14.23v76.01h76.01c10.24 0 17.47-10.03 14.23-19.74l-10.26-30.77c-6.47-19.43 7.99-39.49 28.46-39.49h31.62c20.47 0 34.93 20.06 28.46 39.49l-10.26 30.77c-3.24 9.71 3.99 19.74 14.23 19.74z" fill="#89c1ff"/><path d="m431.344 346.191c5.937-4.279 13.326-5.408 20.271-3.092l30.769 10.256c6.944 2.315 14.333 1.188 20.271-3.092s9.344-10.933 9.344-18.253v-294.51c.001-20.678-16.821-37.5-37.499-37.5h-46.008c-7.32 0-13.973 3.405-18.253 9.344s-5.407 13.327-3.092 20.271l10.256 30.769c2.315 6.945 1.188 14.334-3.093 20.272-4.28 5.939-10.933 9.344-18.252 9.344h-31.613c-7.32 0-13.973-3.405-18.252-9.344-4.28-5.938-5.408-13.327-3.093-20.271l10.257-30.771c2.314-6.944 1.187-14.332-3.093-20.271-4.281-5.938-10.934-9.343-18.254-9.343h-294.51c-20.678 0-37.5 16.822-37.5 37.5v46.008c0 7.32 3.406 13.974 9.345 18.254 5.939 4.279 13.327 5.407 20.271 3.092l30.77-10.257c6.945-2.315 14.334-1.187 20.271 3.093s9.343 10.933 9.343 18.252v31.613c0 7.32-3.406 13.973-9.344 18.253-5.938 4.279-13.326 5.407-20.271 3.092l-30.769-10.256c-6.943-2.315-14.333-1.188-20.271 3.092-5.939 4.281-9.345 10.933-9.345 18.253v185.26c0 4.143 3.358 7.5 7.5 7.5s7.5-3.357 7.5-7.5v-101.749h68.51c2.44 0 4.658 1.135 6.084 3.114s1.802 4.442 1.031 6.757l-10.257 30.771c-3.858 11.574-1.979 23.889 5.155 33.785 7.133 9.897 18.221 15.573 30.421 15.573h31.613c12.2 0 23.288-5.676 30.421-15.573 7.134-9.896 9.013-22.211 5.155-33.786l-10.257-30.769c-.771-2.315-.396-4.778 1.031-6.758s3.645-3.114 6.084-3.114h68.509v68.509c0 7.32 3.406 13.973 9.344 18.253s13.327 5.407 20.271 3.092l30.77-10.256c6.945-2.317 14.333-1.188 20.271 3.092s9.344 10.933 9.344 18.253v31.613c0 7.32-3.406 13.973-9.344 18.253-5.938 4.278-13.327 5.407-20.271 3.092l-30.769-10.256c-6.944-2.316-14.334-1.188-20.271 3.092-5.938 4.28-9.344 10.933-9.344 18.253v68.51h-68.51c-2.44 0-4.658-1.135-6.084-3.114s-1.802-4.442-1.031-6.757l10.257-30.771c3.858-11.574 1.979-23.889-5.155-33.785-7.135-9.897-18.223-15.573-30.422-15.573h-31.613c-12.2 0-23.288 5.676-30.421 15.573-7.134 9.896-9.013 22.211-5.155 33.786l10.256 30.77c.771 2.314.396 4.777-1.031 6.757-1.426 1.979-3.644 3.114-6.084 3.114h-46.008c-12.407 0-22.5-10.094-22.5-22.5v-79.251c0-4.143-3.358-7.5-7.5-7.5s-7.5 3.357-7.5 7.5v79.251c0 20.678 16.822 37.5 37.5 37.5h46.008c7.32 0 13.973-3.405 18.253-9.344s5.407-13.327 3.092-20.271l-10.256-30.769c-2.315-6.945-1.188-14.334 3.093-20.272 4.28-5.938 10.933-9.344 18.252-9.344h31.613c7.32 0 13.973 3.405 18.252 9.344 4.28 5.938 5.408 13.327 3.093 20.271l-10.257 30.771c-2.314 6.944-1.187 14.332 3.093 20.271 4.28 5.938 10.933 9.344 18.253 9.344h294.511c20.678 0 37.5-16.822 37.5-37.5v-46.008c0-7.319-3.406-13.973-9.344-18.253-5.938-4.279-13.328-5.405-20.271-3.093l-30.77 10.257c-6.943 2.317-14.333 1.188-20.271-3.093-5.938-4.28-9.344-10.934-9.344-18.253v-31.613c0-7.321 3.406-13.973 9.344-18.254zm-93.249-328.077c1.427 1.979 1.802 4.442 1.031 6.757l-10.257 30.771c-3.858 11.574-1.979 23.889 5.155 33.785 7.133 9.897 18.221 15.573 30.42 15.573h31.613c12.2 0 23.288-5.676 30.421-15.573 7.134-9.896 9.013-22.211 5.155-33.786l-10.256-30.77c-.771-2.314-.396-4.777 1.031-6.757 1.426-1.979 3.644-3.114 6.084-3.114h46.008c12.407 0 22.5 10.094 22.5 22.5v211h-68.51c-2.44 0-4.658-1.135-6.084-3.114s-1.802-4.442-1.031-6.757l10.257-30.771c3.858-11.574 1.979-23.889-5.155-33.785-7.133-9.897-18.221-15.573-30.421-15.573h-31.613c-12.2 0-23.288 5.676-30.421 15.573-7.134 9.896-9.013 22.211-5.155 33.786l10.257 30.769c.771 2.315.396 4.778-1.031 6.758s-3.645 3.114-6.084 3.114h-68.509v-68.509c0-7.32-3.406-13.973-9.344-18.253-5.938-4.281-13.328-5.408-20.271-3.092l-30.77 10.256c-6.947 2.315-14.333 1.188-20.271-3.092s-9.344-10.933-9.344-18.253v-31.613c0-7.32 3.406-13.973 9.344-18.253 5.937-4.279 13.325-5.409 20.271-3.092l30.769 10.256c6.944 2.314 14.333 1.188 20.271-3.092s9.344-10.934 9.344-18.254v-68.509h68.51c2.441 0 4.659 1.135 6.086 3.114zm-158.103 230.386c-7.32 0-13.973 3.405-18.253 9.344-4.28 5.938-5.407 13.326-3.093 20.271l10.257 30.769c2.315 6.945 1.188 14.334-3.093 20.272-4.28 5.938-10.933 9.344-18.252 9.344h-31.613c-7.32 0-13.973-3.405-18.252-9.344-4.28-5.938-5.408-13.327-3.093-20.271l10.257-30.771c2.314-6.944 1.187-14.332-3.093-20.271-4.28-5.938-10.933-9.344-18.253-9.344h-68.511v-68.511c0-2.439 1.135-4.657 3.115-6.084 1.979-1.426 4.441-1.803 6.757-1.03l30.769 10.256c11.574 3.857 23.889 1.979 33.786-5.153 9.897-7.133 15.573-18.221 15.573-30.421v-31.613c0-12.199-5.676-23.288-15.573-30.421-9.897-7.135-22.213-9.014-33.785-5.155l-30.77 10.257c-2.313.772-4.776.396-6.756-1.03-1.981-1.428-3.116-3.646-3.116-6.086v-46.008c0-12.406 10.093-22.5 22.5-22.5h211v68.51c0 2.44-1.135 4.658-3.115 6.085-1.979 1.426-4.442 1.803-6.757 1.03l-30.769-10.256c-11.576-3.86-23.888-1.979-33.786 5.153-9.897 7.134-15.573 18.222-15.573 30.422v31.613c0 12.2 5.676 23.288 15.573 30.421 9.897 7.134 22.21 9.013 33.785 5.154l30.77-10.256c2.316-.772 4.778-.396 6.757 1.03 1.979 1.427 3.115 3.644 3.115 6.084v68.51zm242.581 177.979c9.896 7.135 22.211 9.012 33.785 5.155l30.77-10.257c2.315-.772 4.778-.396 6.757 1.031s3.115 3.645 3.115 6.084v46.008c0 12.406-10.093 22.5-22.5 22.5h-211v-68.511c0-2.439 1.135-4.657 3.115-6.084 1.979-1.427 4.442-1.803 6.757-1.03l30.769 10.256c11.575 3.857 23.888 1.979 33.786-5.153 9.897-7.134 15.573-18.222 15.573-30.422v-31.613c0-12.2-5.676-23.288-15.573-30.421-9.897-7.135-22.211-9.014-33.785-5.154l-30.77 10.256c-2.315.773-4.778.396-6.757-1.03-1.979-1.427-3.115-3.644-3.115-6.084v-68.51h68.508c7.32 0 13.973-3.405 18.253-9.344 4.28-5.938 5.407-13.326 3.093-20.271l-10.257-30.769c-2.315-6.945-1.188-14.334 3.093-20.272 4.28-5.938 10.933-9.344 18.252-9.344h31.613c7.32 0 13.973 3.405 18.252 9.344 4.28 5.938 5.408 13.327 3.093 20.271l-10.257 30.771c-2.314 6.944-1.187 14.332 3.093 20.271 4.28 5.938 10.933 9.344 18.253 9.344h68.511v68.511c0 2.439-1.135 4.657-3.115 6.084-1.98 1.426-4.442 1.803-6.757 1.03l-30.769-10.256c-11.576-3.859-23.889-1.98-33.786 5.153s-15.573 18.221-15.573 30.421v31.613c0 12.2 5.676 23.289 15.573 30.422z"/></g></svg>