<?xml version="1.0" encoding="utf-8"?>
<!-- Generator: Adobe Illustrator 15.0.0, SVG Export Plug-In . SVG Version: 6.00 Build 0)  -->
<!DOCTYPE svg PUBLIC "-//W3C//DTD SVG 1.1//EN" "http://www.w3.org/Graphics/SVG/1.1/DTD/svg11.dtd">
<svg version="1.1" id="Capa_1" xmlns="http://www.w3.org/2000/svg" xmlns:xlink="http://www.w3.org/1999/xlink" x="0px" y="0px"
	 width="16px" height="16px" viewBox="0 0 16 16" enable-background="new 0 0 16 16" xml:space="preserve">
<path fill="#91CECE" d="M15.639,15.679V8h-2.86l0.133-0.403c0.2-0.603-0.123-1.255-0.722-1.458c-0.118-0.04-0.242-0.061-0.365-0.06
	l0,0c-0.631-0.001-1.146,0.515-1.146,1.15c0,0.125,0.019,0.25,0.059,0.368L10.871,8h-2.86v2.879l0.398-0.134
	c0.599-0.202,1.248,0.124,1.449,0.726c0.04,0.12,0.06,0.244,0.06,0.369l0,0c0,0.636-0.511,1.152-1.143,1.152
	c-0.124,0.001-0.247-0.019-0.366-0.059L8.011,12.8v2.879H15.639L15.639,15.679z"/>
<path fill="#383856" d="M8.011,8v2.879l0.398-0.134c0.6-0.202,1.248,0.124,1.449,0.726c0.04,0.12,0.06,0.244,0.06,0.369l0,0
	c0,0.636-0.511,1.152-1.143,1.152c-0.124,0.001-0.247-0.019-0.366-0.059L8.011,12.8v2.879H0.383V8h2.86L3.11,8.401
	C2.909,9.006,3.232,9.657,3.832,9.859C3.95,9.9,4.073,9.919,4.196,9.919l0,0c0.632,0,1.145-0.515,1.146-1.149
	c0-0.125-0.02-0.249-0.06-0.369L5.15,8H8.011L8.011,8z"/>
<path fill="#EA3836" d="M15.639,8h-2.86l0.133-0.403c0.2-0.603-0.123-1.255-0.722-1.458c-0.118-0.04-0.242-0.061-0.365-0.06l0,0
	c-0.631-0.001-1.146,0.515-1.146,1.15c0,0.125,0.019,0.25,0.059,0.368L10.871,8h-2.86V5.12L8.41,5.253
	c0.599,0.203,1.248-0.123,1.449-0.726c0.04-0.119,0.06-0.242,0.06-0.367l0,0c0-0.636-0.511-1.153-1.143-1.154
	c-0.124,0-0.247,0.02-0.366,0.06L8.011,3.201V0.32h7.627V8L15.639,8z"/>
<path fill="#FFD33F" d="M0.386,0.32V8h2.859L3.113,8.402c-0.2,0.602,0.122,1.256,0.722,1.457C3.952,9.9,4.075,9.92,4.2,9.92l0,0
	c0.631,0,1.144-0.516,1.146-1.149c0-0.126-0.02-0.25-0.06-0.368L5.153,8h2.86V5.12l0.4,0.134C9.012,5.456,9.66,5.131,9.861,4.528
	C9.9,4.409,9.921,4.286,9.92,4.16l0,0c0.001-0.636-0.511-1.152-1.143-1.153C8.654,3.006,8.53,3.027,8.413,3.065L8.013,3.2V0.32
	H0.386L0.386,0.32z"/>
<path fill="#91CECE" d="M8.011,12.915l0.126-0.072L8.011,12.8V12.915z"/>
<path fill="#83B2B7" d="M9.911,11.731c0.003,0.034,0.007,0.069,0.007,0.108c0,0.636-0.511,1.152-1.143,1.152
	c-0.124,0.001-0.247-0.019-0.366-0.059l-0.271-0.091l-0.127,0.072v2.764h7.627V8h-1.659C12.819,9.444,11.447,10.702,9.911,11.731z"
	/>
<path fill="#383856" d="M8.41,12.934c0.6,0.202,1.248-0.124,1.449-0.727c0.04-0.12,0.06-0.244,0.06-0.367
	c0-0.037-0.004-0.074-0.007-0.108c-0.585,0.401-1.181,0.771-1.773,1.111L8.41,12.934z"/>
<path fill="#202033" d="M1.525,15.679h6.486v-2.764C5.951,14.063,3.777,14.989,1.525,15.679z"/>
<path fill="#D62121" d="M13.979,8h1.659V5.242C15.204,6.228,14.646,7.154,13.979,8z"/>
<path fill="#FFAC3E" d="M8.013,1.264V0.569H0.386v5.114C1.55,4.239,3.895,2.114,8.013,1.264z"/>
<path d="M15.639,0H8.011C7.834,0,7.692,0.144,7.692,0.32v2.881c0,0.176,0.142,0.319,0.319,0.318c0.034,0,0.068-0.005,0.1-0.017
	L8.511,3.37C8.945,3.227,9.41,3.464,9.553,3.901c0.142,0.438-0.095,0.906-0.528,1.049c-0.166,0.055-0.348,0.055-0.514,0L8.111,4.816
	C7.944,4.76,7.765,4.852,7.709,5.02C7.698,5.052,7.692,5.086,7.692,5.12v2.559H5.15C4.975,7.679,4.832,7.822,4.833,8
	c0,0.034,0.004,0.068,0.016,0.101l0.133,0.403c0.142,0.438-0.094,0.907-0.528,1.05s-0.9-0.095-1.042-0.531
	c-0.055-0.168-0.055-0.352,0-0.519l0.133-0.403C3.6,7.933,3.51,7.752,3.343,7.696c-0.032-0.01-0.066-0.017-0.1-0.017H0.382
	C0.208,7.679,0.064,7.822,0.064,8v7.679c0,0.178,0.143,0.32,0.318,0.32h15.256c0.176,0,0.317-0.143,0.317-0.32V0.32
	C15.956,0.144,15.814,0,15.639,0z M9.628,5.355c0.657-0.471,0.811-1.391,0.341-2.053c-0.37-0.522-1.033-0.743-1.641-0.545V0.641
	h6.992v7.039h-2.102c0.242-0.775-0.184-1.601-0.954-1.846c-0.771-0.244-1.592,0.186-1.835,0.961c-0.091,0.287-0.091,0.597,0,0.885
	H8.328V5.563C8.771,5.708,9.253,5.63,9.628,5.355z M0.701,8.319h2.101C2.56,9.097,2.987,9.924,3.756,10.168
	c0.771,0.243,1.591-0.186,1.834-0.963c0.091-0.288,0.091-0.597,0-0.886h2.102v2.562c0,0.177,0.142,0.32,0.319,0.32
	c0.034,0,0.068-0.004,0.1-0.017l0.399-0.135c0.435-0.143,0.899,0.095,1.042,0.534c0.142,0.435-0.095,0.904-0.528,1.047
	c-0.166,0.057-0.348,0.057-0.514,0l-0.399-0.133c-0.167-0.057-0.347,0.034-0.402,0.203c-0.011,0.03-0.017,0.064-0.017,0.101v2.56
	H0.701V8.319z M15.32,15.361H8.328v-2.116c0.771,0.243,1.592-0.186,1.834-0.961c0.243-0.777-0.184-1.603-0.954-1.849
	c-0.286-0.091-0.594-0.091-0.88,0V8.319h2.543c0.176,0,0.317-0.143,0.317-0.32c0-0.034-0.004-0.069-0.016-0.101L11.04,7.497
	c-0.143-0.437,0.094-0.907,0.528-1.05c0.433-0.143,0.899,0.096,1.042,0.532c0.055,0.168,0.055,0.349,0,0.518l-0.133,0.402
	c-0.057,0.167,0.033,0.348,0.201,0.404c0.031,0.011,0.065,0.016,0.1,0.016h2.542V15.361L15.32,15.361z"/>
<path d="M0.386,8.32h2.419c-0.243,0.775,0.184,1.6,0.955,1.846c0.77,0.243,1.591-0.186,1.834-0.961c0.089-0.288,0.089-0.598,0-0.885
	h2.418C8.188,8.32,8.33,8.177,8.33,8V5.564c0.771,0.245,1.592-0.186,1.835-0.961c0.243-0.774-0.185-1.602-0.954-1.847
	c-0.287-0.09-0.595-0.09-0.879,0V0.32C8.332,0.144,8.188,0,8.014,0H0.386C0.21,0,0.068,0.144,0.068,0.32V8
	C0.068,8.177,0.21,8.32,0.386,8.32z M0.704,0.64h6.991V3.2c0,0.177,0.143,0.32,0.319,0.32c0.034,0,0.067-0.006,0.1-0.017l0.4-0.135
	c0.434-0.143,0.9,0.096,1.042,0.532c0.143,0.437-0.095,0.907-0.528,1.05c-0.167,0.055-0.347,0.055-0.514,0l-0.4-0.135
	C7.947,4.761,7.767,4.852,7.711,5.019C7.701,5.052,7.695,5.085,7.695,5.12v2.56H5.153C4.977,7.68,4.835,7.823,4.835,8
	c0,0.034,0.006,0.069,0.017,0.101l0.133,0.402C5.126,8.939,4.89,9.409,4.457,9.552C4.023,9.694,3.556,9.457,3.414,9.021
	c-0.055-0.168-0.055-0.35,0-0.518l0.133-0.402c0.056-0.167-0.034-0.348-0.202-0.404C3.314,7.685,3.28,7.68,3.245,7.68H0.704V0.64z"
	/>
</svg>
