<?xml version="1.0" encoding="utf-8"?>
<!-- Generator: Adobe Illustrator 15.0.0, SVG Export Plug-In . SVG Version: 6.00 Build 0)  -->
<!DOCTYPE svg PUBLIC "-//W3C//DTD SVG 1.1//EN" "http://www.w3.org/Graphics/SVG/1.1/DTD/svg11.dtd">
<svg version="1.1" id="Capa_1" xmlns="http://www.w3.org/2000/svg" xmlns:xlink="http://www.w3.org/1999/xlink" x="0px" y="0px"
	 width="16px" height="16px" viewBox="0 0 16 16" enable-background="new 0 0 16 16" xml:space="preserve">
<path fill="#91CECE" d="M13.067,13.066V6.667h-2.399l0.111-0.336c0.168-0.502-0.104-1.046-0.605-1.215
	c-0.1-0.033-0.203-0.05-0.307-0.05l0,0C9.338,5.065,8.906,5.495,8.906,6.024c0,0.104,0.016,0.208,0.049,0.307l0.112,0.336H6.668
	v2.399l0.334-0.112C7.505,8.786,8.049,9.058,8.218,9.56c0.033,0.1,0.05,0.203,0.05,0.307l0,0c0,0.53-0.429,0.961-0.959,0.961
	c-0.104,0.001-0.207-0.016-0.307-0.049l-0.334-0.111v2.399H13.067L13.067,13.066z"/>
<path fill="#383856" d="M6.668,6.667v2.399l0.334-0.112C7.506,8.786,8.049,9.058,8.218,9.56c0.033,0.1,0.05,0.203,0.05,0.307l0,0
	c0,0.53-0.429,0.961-0.959,0.961c-0.104,0.001-0.207-0.016-0.307-0.049l-0.334-0.111v2.399h-6.4V6.667h2.399L2.556,7.001
	C2.387,7.505,2.658,8.048,3.161,8.217c0.099,0.033,0.202,0.05,0.306,0.05l0,0c0.53,0,0.961-0.429,0.962-0.959
	c0-0.104-0.017-0.207-0.05-0.307L4.268,6.667H6.668L6.668,6.667z"/>
<path fill="#EA3836" d="M13.067,6.667h-2.399l0.111-0.336c0.168-0.502-0.104-1.046-0.605-1.215c-0.1-0.033-0.203-0.05-0.307-0.05
	l0,0C9.338,5.065,8.906,5.495,8.906,6.024c0,0.104,0.016,0.208,0.049,0.307l0.112,0.336H6.668v-2.4l0.334,0.111
	c0.503,0.169,1.047-0.103,1.216-0.605c0.033-0.099,0.05-0.202,0.05-0.306l0,0c0-0.53-0.429-0.961-0.959-0.962
	c-0.104,0-0.207,0.017-0.307,0.05L6.668,2.667v-2.4h6.399V6.667L13.067,6.667z"/>
<path fill="#FFD33F" d="M0.27,0.37v6.4h2.399L2.558,7.105C2.39,7.608,2.66,8.152,3.163,8.32c0.099,0.033,0.202,0.05,0.307,0.05l0,0
	c0.529,0.001,0.96-0.429,0.961-0.958c0-0.104-0.017-0.208-0.05-0.307L4.27,6.771h2.399v-2.4l0.336,0.112
	C7.507,4.65,8.051,4.38,8.22,3.877C8.253,3.778,8.27,3.675,8.27,3.57l0,0c0.001-0.53-0.429-0.96-0.959-0.961
	C7.207,2.608,7.104,2.626,7.005,2.658L6.669,2.771v-2.4H0.27L0.27,0.37z"/>
<path fill="#91CECE" d="M6.668,10.763l0.105-0.061l-0.105-0.035V10.763z"/>
<path fill="#83B2B7" d="M8.262,9.776c0.003,0.029,0.006,0.059,0.006,0.09c0,0.53-0.429,0.961-0.959,0.961
	c-0.104,0.001-0.207-0.016-0.307-0.049l-0.228-0.076l-0.106,0.061v2.304h6.399V6.667h-1.392C10.702,7.87,9.551,8.919,8.262,9.776z"
	/>
<path fill="#383856" d="M7.002,10.778c0.504,0.168,1.047-0.104,1.216-0.605c0.033-0.1,0.05-0.203,0.05-0.307
	c0-0.03-0.003-0.061-0.006-0.09c-0.49,0.334-0.99,0.643-1.487,0.926L7.002,10.778z"/>
<path fill="#202033" d="M1.226,13.066h5.442v-2.304C4.939,11.72,3.115,12.491,1.226,13.066z"/>
<path fill="#D62121" d="M11.676,6.667h1.392V4.368C12.703,5.19,12.234,5.962,11.676,6.667z"/>
<path fill="#FFAC3E" d="M6.669,0.949V0.37H0.27v4.262C1.246,3.428,3.214,1.657,6.669,0.949z"/>
<path d="M13.067,0H6.668C6.52,0,6.4,0.119,6.4,0.267v2.4c0,0.146,0.119,0.267,0.268,0.266c0.028,0,0.057-0.004,0.084-0.014
	l0.335-0.111c0.364-0.119,0.755,0.079,0.874,0.443S7.882,4.006,7.518,4.125c-0.139,0.046-0.291,0.046-0.431,0L6.752,4.014
	C6.611,3.967,6.461,4.043,6.414,4.183C6.405,4.21,6.4,4.238,6.4,4.267v2.133H4.268C4.12,6.399,4,6.519,4.001,6.667
	c0,0.028,0.004,0.057,0.014,0.084l0.111,0.335C4.245,7.45,4.047,7.841,3.683,7.96S2.928,7.881,2.809,7.517
	c-0.046-0.139-0.046-0.291,0-0.431L2.92,6.751C2.967,6.61,2.891,6.46,2.751,6.413C2.725,6.404,2.695,6.399,2.667,6.399h-2.4
	C0.12,6.399,0,6.519,0,6.667v6.399c0,0.147,0.12,0.267,0.267,0.267h12.801c0.147,0,0.267-0.119,0.267-0.267v-12.8
	C13.334,0.119,13.215,0,13.067,0z M8.024,4.462c0.552-0.393,0.68-1.159,0.286-1.711C8,2.315,7.443,2.132,6.934,2.297V0.533h5.867
	v5.866h-1.764c0.203-0.646-0.154-1.334-0.801-1.539C9.59,4.657,8.901,5.016,8.697,5.662c-0.076,0.24-0.076,0.498,0,0.738H6.934
	V4.636C7.305,4.757,7.71,4.691,8.024,4.462z M0.534,6.933h1.763C2.094,7.579,2.452,8.269,3.098,8.472
	c0.646,0.204,1.335-0.154,1.539-0.801c0.076-0.24,0.076-0.498,0-0.738H6.4v2.134c0,0.147,0.119,0.267,0.268,0.267
	c0.028,0,0.057-0.004,0.084-0.014l0.335-0.111c0.364-0.119,0.755,0.079,0.874,0.443c0.119,0.363-0.079,0.755-0.443,0.874
	c-0.139,0.046-0.291,0.046-0.431,0l-0.335-0.111c-0.141-0.047-0.291,0.028-0.338,0.169C6.405,10.609,6.4,10.638,6.4,10.667V12.8
	H0.534V6.933z M12.801,12.8H6.934v-1.764c0.646,0.203,1.336-0.154,1.539-0.801C8.677,9.589,8.318,8.9,7.672,8.696
	c-0.24-0.076-0.498-0.076-0.738,0V6.933h2.134c0.147,0,0.267-0.119,0.267-0.267c0-0.028-0.004-0.058-0.014-0.084L9.209,6.247
	C9.09,5.883,9.288,5.491,9.652,5.372c0.363-0.119,0.755,0.08,0.874,0.443c0.046,0.141,0.046,0.291,0,0.432l-0.111,0.335
	c-0.047,0.14,0.028,0.29,0.169,0.337c0.026,0.01,0.055,0.014,0.084,0.014h2.133V12.8L12.801,12.8z"/>
<path d="M0.27,7.037H2.3C2.096,7.683,2.454,8.372,3.101,8.575c0.646,0.204,1.335-0.154,1.539-0.8c0.075-0.24,0.075-0.498,0-0.738
	h2.029c0.147,0,0.267-0.119,0.267-0.267V4.74c0.647,0.204,1.335-0.154,1.54-0.801C8.679,3.294,8.32,2.604,7.674,2.4
	c-0.241-0.075-0.499-0.075-0.738,0V0.37c0-0.146-0.12-0.267-0.267-0.267h-6.4c-0.147,0-0.267,0.12-0.267,0.267v6.4
	C0.003,6.918,0.122,7.037,0.27,7.037z M0.536,0.637h5.866v2.134c0,0.147,0.12,0.267,0.268,0.267c0.028,0,0.057-0.005,0.084-0.014
	l0.335-0.112c0.364-0.119,0.756,0.08,0.875,0.443c0.119,0.364-0.08,0.756-0.443,0.875c-0.141,0.046-0.291,0.046-0.432,0L6.754,4.117
	c-0.14-0.046-0.291,0.029-0.338,0.169C6.407,4.313,6.402,4.342,6.402,4.37v2.134H4.27c-0.147,0-0.267,0.119-0.267,0.267
	c0,0.028,0.005,0.058,0.014,0.084l0.111,0.335c0.119,0.364-0.079,0.756-0.442,0.875C3.321,8.184,2.93,7.985,2.811,7.621
	c-0.046-0.14-0.046-0.291,0-0.432l0.111-0.335c0.047-0.14-0.028-0.29-0.169-0.337c-0.026-0.01-0.055-0.014-0.084-0.014H0.536V0.637z
	"/>
</svg>
